<svg width="901" height="900" viewBox="0 0 901 900" fill="none" xmlns="http://www.w3.org/2000/svg">
<ellipse cx="450.5" cy="450" rx="436.5" ry="436" fill="#CB0000"/>
<path fill-rule="evenodd" clip-rule="evenodd" d="M450.5 886C691.572 886 887 690.796 887 450C887 209.204 691.572 14 450.5 14V886Z" fill="#A30000"/>
<path d="M346.792 11.9848C339.266 13.7563 334.601 21.2936 336.372 28.82C338.144 36.3463 345.681 41.0115 353.208 39.24L346.792 11.9848ZM133.279 171.258C138.392 165.457 137.834 156.611 132.034 151.498C126.234 146.385 117.387 146.942 112.274 152.742L133.279 171.258ZM82.8372 189.893C78.3598 196.197 79.8403 204.936 86.144 209.414C92.4477 213.891 101.188 212.411 105.665 206.107L82.8372 189.893ZM45.0432 330.947C47.2229 323.528 42.9762 315.748 35.5578 313.568C28.1394 311.388 20.3586 315.635 18.1789 323.053L45.0432 330.947ZM158.94 793.059C164.835 798.063 173.67 797.34 178.673 791.445C183.677 785.551 182.954 776.716 177.06 771.712L158.94 793.059ZM353.208 860.76C345.681 858.988 338.144 863.654 336.372 871.18C334.601 878.706 339.266 886.244 346.792 888.015L353.208 860.76ZM873 450C873 683.049 683.855 872 450.5 872V900C699.289 900 901 698.543 901 450H873ZM450.5 28C683.855 28 873 216.951 873 450H901C901 201.457 699.289 0 450.5 0V28ZM353.208 39.24C384.429 31.8913 417.001 28 450.5 28V0C414.825 0 380.102 4.14483 346.792 11.9848L353.208 39.24ZM105.665 206.107C114.262 194.003 123.482 182.371 133.279 171.258L112.274 152.742C101.832 164.589 92.0028 176.989 82.8372 189.893L105.665 206.107ZM28 450C28 408.637 33.9538 368.687 45.0432 330.947L18.1789 323.053C6.34418 363.33 0 405.937 0 450H28ZM177.06 771.712C85.8375 694.282 28 578.893 28 450H0C0 587.465 61.7232 710.541 158.94 793.059L177.06 771.712ZM450.5 872C417.001 872 384.429 868.109 353.208 860.76L346.792 888.015C380.102 895.855 414.825 900 450.5 900V872Z" fill="black"/>
<path d="M460 853.5C460 848.529 455.971 844.5 451 844.5C446.029 844.5 442 848.529 442 853.5H460ZM643.779 807.974C641.279 803.678 635.77 802.221 631.474 804.721C627.178 807.221 625.721 812.73 628.221 817.026L643.779 807.974ZM792.357 671.167C788.583 667.932 782.901 668.369 779.667 672.143C776.432 675.917 776.869 681.599 780.643 684.833L792.357 671.167ZM858.5 441C853.529 441 849.5 445.029 849.5 450C849.5 454.971 853.529 459 858.5 459V441ZM781.269 216.176C777.224 219.065 776.287 224.686 779.176 228.731C782.065 232.776 787.686 233.713 791.731 230.824L781.269 216.176ZM628.03 84.3191C625.721 88.7207 627.417 94.1609 631.819 96.4699C636.221 98.779 641.661 97.0826 643.97 92.6809L628.03 84.3191ZM442 47C442 51.9706 446.029 56 451 56C455.971 56 460 51.9706 460 47H442ZM125.525 685.104C129.449 682.053 130.156 676.398 127.104 672.475C124.053 668.551 118.398 667.844 114.475 670.896L125.525 685.104ZM48 459C52.9706 459 57 454.971 57 450C57 445.029 52.9706 441 48 441V459ZM460 886V853.5H442V886H460ZM628.221 817.026L644.221 844.526L659.779 835.474L643.779 807.974L628.221 817.026ZM780.643 684.833L805.143 705.833L816.857 692.167L792.357 671.167L780.643 684.833ZM858.5 459H887V441H858.5V459ZM791.731 230.824L816.231 213.324L805.769 198.676L781.269 216.176L791.731 230.824ZM643.97 92.6809L659.97 62.1809L644.03 53.8191L628.03 84.3191L643.97 92.6809ZM460 47V10H442V47H460ZM98.5255 706.104L125.525 685.104L114.475 670.896L87.4745 691.896L98.5255 706.104ZM15 459H48V441H15V459Z" fill="black"/>
<path fill-rule="evenodd" clip-rule="evenodd" d="M450.16 206.966L254.318 629.158C253.703 630.484 254.671 632 256.132 632H331.653C332.467 632 333.2 631.506 333.506 630.751L369.994 540.749C370.3 539.994 371.033 539.5 371.847 539.5H526.679C527.48 539.5 528.204 539.978 528.519 540.715L566.981 630.785C567.296 631.522 568.02 632 568.821 632H642.404C643.856 632 644.824 630.501 644.227 629.178L453.798 206.985C453.094 205.424 450.881 205.413 450.16 206.966ZM405.04 470C403.602 470 402.634 468.528 403.203 467.208L450.106 358.393C450.809 356.763 453.13 356.788 453.797 358.434L497.885 467.249C498.418 468.564 497.45 470 496.032 470H405.04Z" fill="white"/>
<path d="M331.653 632C332.467 632 333.2 631.506 333.506 630.751M331.653 632H256.132M331.653 632L332.5 631.5L333.506 630.751M369.994 540.749C370.3 539.994 371.033 539.5 371.847 539.5M369.994 540.749L333.506 630.751M369.994 540.749L371.847 539.5M254.318 629.158L450.16 206.966M254.318 629.158C253.703 630.484 254.671 632 256.132 632M254.318 629.158L255.399 630.615C255.466 630.706 255.526 630.802 255.577 630.903L256.132 632M450.16 206.966C450.881 205.413 453.094 205.424 453.798 206.985M450.16 206.966L452 207L453.798 206.985M453.798 206.985L644.227 629.178M644.227 629.178C644.824 630.501 643.856 632 642.404 632M644.227 629.178L643.629 630.501C643.543 630.689 643.429 630.864 643.291 631.017L642.404 632M642.404 632H568.821M568.821 632C568.02 632 567.296 631.522 566.981 630.785M568.821 632L568 631.5L566.981 630.785M566.981 630.785L528.519 540.715M528.519 540.715C528.204 539.978 527.48 539.5 526.679 539.5M528.519 540.715L527.5 540L526.679 539.5M526.679 539.5H371.847M497.885 467.249L453.797 358.434C453.13 356.788 450.809 356.763 450.106 358.393L403.203 467.208C402.634 468.528 403.602 470 405.04 470H496.032C497.45 470 498.418 468.564 497.885 467.249Z" stroke="black" stroke-width="14"/>
</svg>
